<svg id="Layer_1" data-name="Layer 1" xmlns="http://www.w3.org/2000/svg" xmlns:xlink="http://www.w3.org/1999/xlink" width="164" height="164" viewBox="0 0 164 164">
  <defs>
    <style>
      .cls-1, .cls-2 {
        fill: none;
      }

      .cls-2, .cls-3 {
        clip-rule: evenodd;
      }

      .cls-12, .cls-3, .cls-8 {
        fill: #fff;
      }

      .cls-4 {
        clip-path: url(#clip-path);
      }

      .cls-5 {
        isolation: isolate;
      }

      .cls-6 {
        clip-path: url(#clip-path-2);
      }

      .cls-7 {
        clip-path: url(#clip-path-3);
      }

      .cls-9 {
        clip-path: url(#clip-path-5);
      }

      .cls-10 {
        clip-path: url(#clip-path-6);
      }

      .cls-11 {
        clip-path: url(#clip-path-7);
      }

      .cls-12 {
        fill-rule: evenodd;
      }

      .cls-13 {
        clip-path: url(#clip-path-8);
      }

      .cls-14 {
        clip-path: url(#clip-path-9);
      }
    </style>
    <clipPath id="clip-path">
      <rect class="cls-1" x="2" y="2" width="160" height="160"/>
    </clipPath>
    <clipPath id="clip-path-2">
      <rect class="cls-1" x="2" y="0.73" width="160.69" height="162.7"/>
    </clipPath>
    <clipPath id="clip-path-3">
      <path class="cls-2" d="M82,162a80,80,0,1,1,80-80,80.09,80.09,0,0,1-80,80M82,14.18A67.82,67.82,0,1,0,149.82,82,67.9,67.9,0,0,0,82,14.18"/>
    </clipPath>
    <clipPath id="clip-path-5">
      <path class="cls-2" d="M70.36,60.94s0-.06,0-.09,0,.06,0,.09"/>
    </clipPath>
    <clipPath id="clip-path-6">
      <path class="cls-2" d="M80,94.67l0,.11,0-.11"/>
    </clipPath>
    <clipPath id="clip-path-7">
      <path class="cls-2" d="M121.66,60.51h0v0"/>
    </clipPath>
    <clipPath id="clip-path-8">
      <path class="cls-3" d="M133.47,68.29a7.36,7.36,0,1,1-7.36-7.35,7.36,7.36,0,0,1,7.36,7.35"/>
    </clipPath>
    <clipPath id="clip-path-9">
      <path class="cls-3" d="M112.77,114V92.4c0-5-4.4-7.89-9.19-7.89h-3.33l2.66-3.2,7.25-8.72c3.64-4.41,3.07-10.8,2.4-14.24a20.91,20.91,0,0,0-1-3.34,20.91,20.91,0,0,1,1,3.34,24.06,24.06,0,0,0-.59-2.41,19.15,19.15,0,0,0-6.45-9.18h0a21.39,21.39,0,0,0-8.26-4.32c-.34-.09-.67-.19-1-.26l-.36-.08a18.81,18.81,0,0,0-4-.41h-.47c-.19,0-.37,0-.56,0a21.24,21.24,0,0,0-13.44,5.4,19.78,19.78,0,0,0-7.08,13.75.28.28,0,0,0,0,.09,30.11,30.11,0,0,0-.15,4.18s0,3.32,0,7.76h0c0,5.64,0,13.09-.08,17.92a10.12,10.12,0,0,1-9.33,10.1,10.7,10.7,0,0,1-5-20.48,11.43,11.43,0,0,1,4-1h0a4.7,4.7,0,1,0,0-9.39l-.48,0a23.28,23.28,0,0,0-4.44.61A20.5,20.5,0,1,0,80,94.77a.36.36,0,0,1,0-.1c.06-.28.08-.57.13-.86.07-.5.15-1,.19-1.53,0-.28,0-.57.05-.86s0-.62,0-.93h0c0-.21,0-.42,0-.63V81.31c0-8.31,0-17.44,0-17.44a11,11,0,0,1,9.79-11.56c5-.59,10,1.08,11.91,7.59,0,0,1.41,4.9-.32,6.94l-14,16.49a8.17,8.17,0,0,0-.6.7,6.33,6.33,0,0,0-1.14,6.34c1.34,3.29,4.83,3.75,6.78,3.77h10.3v21.92a7.69,7.69,0,0,0,2.07,5.38,7.32,7.32,0,0,0,5.34,2.17h39V114Z"/>
    </clipPath>
  </defs>
  <title>pinksangre-logo-round</title>
  <g class="cls-4">
    <g class="cls-5">
      <g class="cls-6">
        <g class="cls-7">
          <g class="cls-6">
            <rect class="cls-8" x="-8.04" y="-8.04" width="180.09" height="180.09"/>
          </g>
        </g>
      </g>
    </g>
  </g>
  <g class="cls-9">
    <rect x="60.32" y="50.8" width="20.1" height="20.18"/>
  </g>
  <g class="cls-10">
    <rect x="69.96" y="84.63" width="20.11" height="20.19"/>
  </g>
  <g class="cls-11">
    <rect x="111.61" y="50.47" width="20.1" height="20.11"/>
  </g>
  <g>
    <path class="cls-12" d="M133.47,68.29a7.36,7.36,0,1,1-7.36-7.35,7.36,7.36,0,0,1,7.36,7.35"/>
    <g class="cls-13">
      <rect class="cls-8" x="108.71" y="50.89" width="34.8" height="34.8"/>
    </g>
  </g>
  <g>
    <path class="cls-12" d="M112.77,114V92.4c0-5-4.4-7.89-9.19-7.89h-3.33l2.66-3.2,7.25-8.72c3.64-4.41,3.07-10.8,2.4-14.24a20.91,20.91,0,0,0-1-3.34,20.91,20.91,0,0,1,1,3.34,24.06,24.06,0,0,0-.59-2.41,19.15,19.15,0,0,0-6.45-9.18h0a21.39,21.39,0,0,0-8.26-4.32c-.34-.09-.67-.19-1-.26l-.36-.08a18.81,18.81,0,0,0-4-.41h-.47c-.19,0-.37,0-.56,0a21.24,21.24,0,0,0-13.44,5.4,19.78,19.78,0,0,0-7.08,13.75.28.28,0,0,0,0,.09,30.11,30.11,0,0,0-.15,4.18s0,3.32,0,7.76h0c0,5.64,0,13.09-.08,17.92a10.12,10.12,0,0,1-9.33,10.1,10.7,10.7,0,0,1-5-20.48,11.43,11.43,0,0,1,4-1h0a4.7,4.7,0,1,0,0-9.39l-.48,0a23.28,23.28,0,0,0-4.44.61A20.5,20.5,0,1,0,80,94.77a.36.36,0,0,1,0-.1c.06-.28.08-.57.13-.86.07-.5.15-1,.19-1.53,0-.28,0-.57.05-.86s0-.62,0-.93h0c0-.21,0-.42,0-.63V81.31c0-8.31,0-17.44,0-17.44a11,11,0,0,1,9.79-11.56c5-.59,10,1.08,11.91,7.59,0,0,1.41,4.9-.32,6.94l-14,16.49a8.17,8.17,0,0,0-.6.7,6.33,6.33,0,0,0-1.14,6.34c1.34,3.29,4.83,3.75,6.78,3.77h10.3v21.92a7.69,7.69,0,0,0,2.07,5.38,7.32,7.32,0,0,0,5.34,2.17h39V114Z"/>
    <g class="cls-14">
      <rect class="cls-8" x="29.4" y="31.61" width="130.2" height="102.03"/>
    </g>
  </g>
</svg>
